# xmcd
#
# Track frame offsets: 
#        182
#        18387
#        33965
#        55290
#        83607
#        101150
#        119335
#        138427
#        151850
#        168247
#        187665
#        207705
#        229037
#        247535
#        269732
#        287042
#        303815
#        318930
#
# Disc length: 4553 seconds
#
# Revision: 0
# Processed by: cddbd v1.5.2PL0 Copyright (c) Steve Scherf et al.
# Submitted via: ExactAudioCopyFreeDBPlugin 1.0
#
DISCID=e811c712
DTITLE=Steve Parks - Movin' In The Right Direction - The Complete Soli
DTITLE=d Smoke Sessions
DYEAR=1998
DGENRE=Soul
TTITLE0=All In A Day
TTITLE1=Just Ask Me
TTITLE2=Everything's Gonna Be OK
TTITLE3=Don't Stop Now
TTITLE4=Sadness In My Samba
TTITLE5=Medley - Under The Boardwalk - (I've Got) Sand In My Shoes
TTITLE6=Movin' In The Right Direction
TTITLE7=The One Who Really Loves You
TTITLE8=The Golden Key - Tag
TTITLE9=You Make It Easy For Me
TTITLE10=The Look In Your Eyes
TTITLE11=Shimmy And Jive
TTITLE12=Wrong Decision
TTITLE13=Stop! Drop Everything
TTITLE14=Wonderful
TTITLE15=Should've Been Wishing (Instead Of Dreaming)
TTITLE16=You Excite Me
TTITLE17=Island So Far Away
EXTD=Sean P.
EXTT0=
EXTT1=
EXTT2=
EXTT3=
EXTT4=
EXTT5=
EXTT6=
EXTT7=
EXTT8=
EXTT9=
EXTT10=
EXTT11=
EXTT12=
EXTT13=
EXTT14=
EXTT15=
EXTT16=
EXTT17=
PLAYORDER=
